<?xml version="1.0" standalone="no"?>
<?xml-stylesheet href="light.css" type="text/css"?>
<!DOCTYPE svg PUBLIC "-//W3C//DTD SVG 1.1//EN" "http://www.w3.org/Graphics/SVG/1.1/DTD/svg11.dtd">
<svg xmlns="http://www.w3.org/2000/svg" class="railroad-diagram" width="686" height="202" viewBox="0 0 686 202"><g transform="translate(.5 .5)"><path d="M 20 45 v 20 m 0 -10 h 20.5"></path><g><path d="M40 55h0"></path><path d="M646 55h0"></path><path d="M40 55h20"></path><g><path d="M60 55h0"></path><path d="M626 55h0"></path><g><path d="M60 55h0"></path><path d="M262 55h0"></path><path d="M60 55a10 10 0 0 0 10 -10v-15a10 10 0 0 1 10 -10"></path><g><path d="M80 20h162"></path></g><path d="M242 20a10 10 0 0 1 10 10v15a10 10 0 0 0 10 10"></path><path d="M60 55h20"></path><g><path d="M80 55h0"></path><path d="M242 55h0"></path><path d="M80 55h10"></path><g><path d="M90 55h0"></path><path d="M232 55h0"></path><path d="M90 55h20"></path><g><path d="M110 55h8"></path><path d="M204 55h8"></path><g class="non-terminal"><path d="M118 55h0"></path><path d="M204 55h0"></path><rect x="118" y="44" width="86" height="22" rx="8" ry="8"></rect><text x="161" y="59">fun_def</text></g></g><path d="M212 55h20"></path><path d="M90 55a10 10 0 0 1 10 10v26a10 10 0 0 0 10 10"></path><g><path d="M110 101h0"></path><path d="M212 101h0"></path><g class="non-terminal"><path d="M110 101h0"></path><path d="M212 101h0"></path><rect x="110" y="90" width="102" height="22" rx="8" ry="8"></rect><text x="161" y="105">statement</text></g></g><path d="M212 101a10 10 0 0 0 10 -10v-26a10 10 0 0 1 10 -10"></path><path d="M90 55a10 10 0 0 1 10 10v72a10 10 0 0 0 10 10"></path><g><path d="M110 147h28"></path><path d="M184 147h28"></path><g class="terminal"><path d="M138 147h0"></path><path d="M184 147h0"></path><rect x="138" y="136" width="46" height="22" rx="0" ry="0"></rect><text x="161" y="151">NL</text></g></g><path d="M212 147a10 10 0 0 0 10 -10v-72a10 10 0 0 1 10 -10"></path></g><path d="M232 55h10"></path><path d="M90 55a10 10 0 0 0 -10 10v107a10 10 0 0 0 10 10"></path><g><path d="M90 182h142"></path></g><path d="M232 182a10 10 0 0 0 10 -10v-107a10 10 0 0 0 -10 -10"></path></g><path d="M242 55h20"></path></g><path d="M262 55h10"></path><g class="non-terminal"><path d="M272 55h0"></path><path d="M366 55h0"></path><rect x="272" y="44" width="94" height="22" rx="8" ry="8"></rect><text x="319" y="59">main_def</text></g><path d="M366 55h10"></path><g><path d="M376 55h0"></path><path d="M562 55h0"></path><path d="M376 55a10 10 0 0 0 10 -10v-15a10 10 0 0 1 10 -10"></path><g><path d="M396 20h146"></path></g><path d="M542 20a10 10 0 0 1 10 10v15a10 10 0 0 0 10 10"></path><path d="M376 55h20"></path><g><path d="M396 55h0"></path><path d="M542 55h0"></path><path d="M396 55h10"></path><g><path d="M406 55h0"></path><path d="M532 55h0"></path><path d="M406 55h20"></path><g><path d="M426 55h0"></path><path d="M512 55h0"></path><g class="non-terminal"><path d="M426 55h0"></path><path d="M512 55h0"></path><rect x="426" y="44" width="86" height="22" rx="8" ry="8"></rect><text x="469" y="59">fun_def</text></g></g><path d="M512 55h20"></path><path d="M406 55a10 10 0 0 1 10 10v26a10 10 0 0 0 10 10"></path><g><path d="M426 101h20"></path><path d="M492 101h20"></path><g class="terminal"><path d="M446 101h0"></path><path d="M492 101h0"></path><rect x="446" y="90" width="46" height="22" rx="0" ry="0"></rect><text x="469" y="105">NL</text></g></g><path d="M512 101a10 10 0 0 0 10 -10v-26a10 10 0 0 1 10 -10"></path></g><path d="M532 55h10"></path><path d="M406 55a10 10 0 0 0 -10 10v61a10 10 0 0 0 10 10"></path><g><path d="M406 136h126"></path></g><path d="M532 136a10 10 0 0 0 10 -10v-61a10 10 0 0 0 -10 -10"></path></g><path d="M542 55h20"></path></g><path d="M562 55h10"></path><g class="terminal"><path d="M572 55h0"></path><path d="M626 55h0"></path><rect x="572" y="44" width="54" height="22" rx="0" ry="0"></rect><text x="599" y="59">EOF</text></g></g><path d="M626 55h20"></path></g><path d="M 646 55 h 20 m 0 -10 v 20"></path></g></svg>